# xmcd CD database file
#
# Track frame offsets:
#	150
#	28970
#	52272
#	83941
#	106986
#	136219
#	187873
#	213777
#	254480
#
# Disc length: 3714 seconds
#
# Revision: 3
# Processed by: cddbd v1.5.2PL0 Copyright (c) Steve Scherf et al.
# Submitted via: CDex 1.51
#
DISCID=7d0e8009
DTITLE=Akın Eldes - Türlü
DYEAR=2004
DGENRE=Jazz
TTITLE0=Eklektik Oyun Havası
TTITLE1=Ardından
TTITLE2=Sert Tatlı
TTITLE3=Hayal Meyal
TTITLE4=Madımak
TTITLE5=Ağırparça
TTITLE6=J.H.
TTITLE7=Türlü
TTITLE8=Kapı Parası
EXTD=YEAR: 2004
EXTT0=
EXTT1=
EXTT2=
EXTT3=
EXTT4=
EXTT5=
EXTT6=
EXTT7=
EXTT8=
PLAYORDER=
